<svg width="23" height="22" viewBox="0 0 23 22" fill="none" xmlns="http://www.w3.org/2000/svg">
<path d="M13.7494 17.2518C13.5753 17.2518 13.4011 17.1876 13.2636 17.0501C12.9978 16.7843 12.9978 16.3443 13.2636 16.0784L18.3419 11.0001L13.2636 5.92177C12.9978 5.65594 12.9978 5.21594 13.2636 4.95011C13.5294 4.68427 13.9694 4.68427 14.2353 4.95011L19.7994 10.5143C20.0653 10.7801 20.0653 11.2201 19.7994 11.4859L14.2353 17.0501C14.0978 17.1876 13.9236 17.2518 13.7494 17.2518Z" fill="white"/>
<path d="M19.1577 11.6875H3.73022C3.35439 11.6875 3.04272 11.3758 3.04272 11C3.04272 10.6242 3.35439 10.3125 3.73022 10.3125H19.1577C19.5336 10.3125 19.8452 10.6242 19.8452 11C19.8452 11.3758 19.5336 11.6875 19.1577 11.6875Z" fill="white"/>
</svg>
