<svg width="22" height="22" viewBox="0 0 22 22" fill="none" xmlns="http://www.w3.org/2000/svg">
<path d="M15.9958 20.8541C14.9599 20.8541 13.8691 20.6066 12.7416 20.1299C11.6416 19.6624 10.5324 19.0208 9.45075 18.2416C8.37825 17.4533 7.34242 16.5733 6.36159 15.6108C5.38992 14.6299 4.50992 13.5941 3.73075 12.5308C2.94242 11.4308 2.30992 10.3308 1.86075 9.26742C1.38409 8.13075 1.14575 7.03075 1.14575 5.99492C1.14575 5.27992 1.27409 4.60159 1.52159 3.96909C1.77825 3.31825 2.19075 2.71325 2.74992 2.19075C3.45575 1.49409 4.26242 1.14575 5.12409 1.14575C5.48159 1.14575 5.84825 1.22825 6.15992 1.37492C6.51742 1.53992 6.81992 1.78742 7.03992 2.11742L9.16658 5.11492C9.35908 5.38075 9.50575 5.63742 9.60658 5.89408C9.72575 6.16908 9.78992 6.44409 9.78992 6.70992C9.78992 7.05825 9.68908 7.39742 9.49658 7.71825C9.35908 7.96575 9.14825 8.23159 8.88242 8.49742L8.25909 9.14825C8.26825 9.17575 8.27742 9.19409 8.28658 9.21242C8.39658 9.40492 8.61658 9.73492 9.03825 10.2299C9.48742 10.7433 9.90909 11.2108 10.3308 11.6416C10.8716 12.1733 11.3208 12.5949 11.7424 12.9433C12.2649 13.3833 12.6041 13.6033 12.8058 13.7041L12.7874 13.7499L13.4566 13.0899C13.7408 12.8058 14.0158 12.5949 14.2816 12.4574C14.7858 12.1458 15.4274 12.0908 16.0691 12.3566C16.3074 12.4574 16.5641 12.5949 16.8391 12.7874L19.8824 14.9508C20.2216 15.1799 20.4691 15.4733 20.6158 15.8216C20.7533 16.1699 20.8174 16.4908 20.8174 16.8116C20.8174 17.2516 20.7166 17.6916 20.5241 18.1041C20.3316 18.5166 20.0933 18.8741 19.7908 19.2041C19.2683 19.7816 18.6999 20.1941 18.0399 20.4599C17.4074 20.7166 16.7199 20.8541 15.9958 20.8541ZM5.12409 2.52075C4.61992 2.52075 4.15242 2.74075 3.70325 3.18075C3.28159 3.57492 2.98825 4.00575 2.80492 4.47325C2.61242 4.94992 2.52075 5.45409 2.52075 5.99492C2.52075 6.84742 2.72242 7.77325 3.12575 8.72659C3.53825 9.69825 4.11575 10.7066 4.84909 11.7149C5.58242 12.7233 6.41659 13.7041 7.33325 14.6299C8.24992 15.5374 9.23992 16.3808 10.2574 17.1233C11.2474 17.8474 12.2649 18.4341 13.2733 18.8558C14.8408 19.5249 16.3074 19.6808 17.5174 19.1766C17.9849 18.9841 18.3974 18.6908 18.7733 18.2691C18.9841 18.0399 19.1491 17.7924 19.2866 17.4991C19.3966 17.2699 19.4516 17.0316 19.4516 16.7933C19.4516 16.6466 19.4241 16.4999 19.3508 16.3349C19.3233 16.2799 19.2683 16.1791 19.0941 16.0599L16.0508 13.8966C15.8674 13.7683 15.7024 13.6766 15.5466 13.6124C15.3449 13.5299 15.2624 13.4474 14.9508 13.6399C14.7674 13.7316 14.6024 13.8691 14.4191 14.0524L13.7224 14.7399C13.3649 15.0883 12.8149 15.1708 12.3933 15.0149L12.1458 14.9049C11.7699 14.7033 11.3299 14.3916 10.8441 13.9791C10.4041 13.6033 9.92742 13.1633 9.34992 12.5949C8.90075 12.1366 8.45158 11.6508 7.98409 11.1099C7.55325 10.6058 7.24159 10.1749 7.04909 9.81742L6.93909 9.54242C6.88409 9.33158 6.86575 9.21242 6.86575 9.08408C6.86575 8.75408 6.98492 8.46075 7.21408 8.23158L7.90158 7.51658C8.08492 7.33325 8.22242 7.15908 8.31408 7.00325C8.38742 6.88408 8.41492 6.78325 8.41492 6.69159C8.41492 6.61825 8.38742 6.50825 8.34159 6.39825C8.27742 6.25159 8.17658 6.08658 8.04825 5.91242L5.92159 2.90575C5.82992 2.77742 5.71992 2.68575 5.58242 2.62159C5.43575 2.55742 5.27992 2.52075 5.12409 2.52075ZM12.7874 13.7591L12.6408 14.3824L12.8883 13.7408C12.8424 13.7316 12.8058 13.7408 12.7874 13.7591Z" fill="white"/>
<path d="M16.9583 8.93758C16.5825 8.93758 16.2708 8.62591 16.2708 8.25008C16.2708 7.92008 15.9408 7.23258 15.3908 6.64591C14.85 6.06841 14.2542 5.72925 13.75 5.72925C13.3742 5.72925 13.0625 5.41758 13.0625 5.04175C13.0625 4.66591 13.3742 4.35425 13.75 4.35425C14.6392 4.35425 15.5742 4.83091 16.39 5.70175C17.1508 6.51758 17.6458 7.51675 17.6458 8.25008C17.6458 8.62591 17.3342 8.93758 16.9583 8.93758Z" fill="white"/>
<path d="M20.1667 8.93742C19.7908 8.93742 19.4792 8.62575 19.4792 8.24992C19.4792 5.08742 16.9125 2.52075 13.75 2.52075C13.3742 2.52075 13.0625 2.20909 13.0625 1.83325C13.0625 1.45742 13.3742 1.14575 13.75 1.14575C17.6642 1.14575 20.8542 4.33575 20.8542 8.24992C20.8542 8.62575 20.5425 8.93742 20.1667 8.93742Z" fill="white"/>
</svg>
