<svg width="50" height="50" viewBox="0 0 50 50" fill="none" xmlns="http://www.w3.org/2000/svg">
<path d="M25.25 28.1876C25.2083 28.1876 25.1458 28.1876 25.1042 28.1876C25.0417 28.1876 24.9583 28.1876 24.8958 28.1876C20.1667 28.0417 16.625 24.3542 16.625 19.8126C16.625 15.1876 20.3958 11.4167 25.0208 11.4167C29.6458 11.4167 33.4167 15.1876 33.4167 19.8126C33.3958 24.3751 29.8333 28.0417 25.3125 28.1876C25.2708 28.1876 25.2708 28.1876 25.25 28.1876ZM25 14.5209C22.0833 14.5209 19.7292 16.8959 19.7292 19.7917C19.7292 22.6459 21.9583 24.9584 24.7917 25.0626C24.8542 25.0417 25.0625 25.0417 25.2708 25.0626C28.0625 24.9167 30.25 22.6251 30.2708 19.7917C30.2708 16.8959 27.9167 14.5209 25 14.5209Z" fill="white"/>
<path d="M24.9999 47.3957C19.3958 47.3957 14.0416 45.3124 9.89578 41.5208C9.52078 41.1874 9.35411 40.6874 9.39578 40.2082C9.66661 37.7291 11.2083 35.4166 13.7708 33.7083C19.9791 29.5833 30.0416 29.5833 36.2291 33.7083C38.7916 35.4374 40.3333 37.7291 40.6041 40.2082C40.6666 40.7082 40.4791 41.1874 40.1041 41.5208C35.9583 45.3124 30.6041 47.3957 24.9999 47.3957ZM12.6666 39.7916C16.1249 42.6874 20.4791 44.2708 24.9999 44.2708C29.5208 44.2708 33.8749 42.6874 37.3333 39.7916C36.9583 38.5208 35.9583 37.2916 34.4791 36.2916C29.3541 32.8749 20.6666 32.8749 15.4999 36.2916C14.0208 37.2916 13.0416 38.5208 12.6666 39.7916Z" fill="white"/>
<path d="M25 47.3959C12.6458 47.3959 2.60413 37.3542 2.60413 25.0001C2.60413 12.6459 12.6458 2.60425 25 2.60425C37.3541 2.60425 47.3958 12.6459 47.3958 25.0001C47.3958 37.3542 37.3541 47.3959 25 47.3959ZM25 5.72925C14.375 5.72925 5.72913 14.3751 5.72913 25.0001C5.72913 35.6251 14.375 44.2709 25 44.2709C35.625 44.2709 44.2708 35.6251 44.2708 25.0001C44.2708 14.3751 35.625 5.72925 25 5.72925Z" fill="white"/>
</svg>
