<svg width="50" height="50" viewBox="0 0 50 50" fill="none" xmlns="http://www.w3.org/2000/svg">
<path d="M24.9998 47.3958C24.4998 47.3958 23.9998 47.3334 23.5206 47.1876C12.7081 44.2084 4.87476 34.1042 4.87476 23.1458V14C4.87476 11.6666 6.56227 9.14589 8.72894 8.25006L20.3331 3.5C23.3539 2.27083 26.6664 2.27083 29.6664 3.5L41.2706 8.25006C43.4373 9.14589 45.1248 11.6666 45.1248 14V23.1458C45.1248 34.0833 37.2706 44.1876 26.4789 47.1876C25.9997 47.3334 25.4998 47.3958 24.9998 47.3958ZM24.9998 5.72918C23.8123 5.72918 22.6456 5.95838 21.5206 6.41672L9.91645 11.1667C8.91645 11.5833 7.99976 12.9375 7.99976 14.0208V23.1667C7.99976 32.7292 14.8748 41.5626 24.3539 44.1876C24.7706 44.3126 25.2289 44.3126 25.6456 44.1876C35.1248 41.5626 41.9998 32.7292 41.9998 23.1667V14.0208C41.9998 12.9375 41.0831 11.5833 40.0831 11.1667L28.479 6.41672C27.354 5.95838 26.1873 5.72918 24.9998 5.72918Z" fill="white"/>
<path d="M24.9999 27.6041C21.8333 27.6041 19.2708 25.0416 19.2708 21.8749C19.2708 18.7083 21.8333 16.1458 24.9999 16.1458C28.1666 16.1458 30.7291 18.7083 30.7291 21.8749C30.7291 25.0416 28.1666 27.6041 24.9999 27.6041ZM24.9999 19.2708C23.5624 19.2708 22.3958 20.4374 22.3958 21.8749C22.3958 23.3124 23.5624 24.4791 24.9999 24.4791C26.4374 24.4791 27.6041 23.3124 27.6041 21.8749C27.6041 20.4374 26.4374 19.2708 24.9999 19.2708Z" fill="white"/>
<path d="M25 33.8542C24.1458 33.8542 23.4375 33.1459 23.4375 32.2917V26.0417C23.4375 25.1876 24.1458 24.4792 25 24.4792C25.8542 24.4792 26.5625 25.1876 26.5625 26.0417V32.2917C26.5625 33.1459 25.8542 33.8542 25 33.8542Z" fill="white"/>
</svg>
