<svg width="50" height="50" viewBox="0 0 50 50" fill="none" xmlns="http://www.w3.org/2000/svg">
<path d="M22.9167 43.2292C11.7084 43.2292 2.60425 34.1251 2.60425 22.9167C2.60425 11.7084 11.7084 2.60425 22.9167 2.60425C34.1251 2.60425 43.2292 11.7084 43.2292 22.9167C43.2292 34.1251 34.1251 43.2292 22.9167 43.2292ZM22.9167 5.72925C13.4376 5.72925 5.72925 13.4376 5.72925 22.9167C5.72925 32.3959 13.4376 40.1042 22.9167 40.1042C32.3959 40.1042 40.1042 32.3959 40.1042 22.9167C40.1042 13.4376 32.3959 5.72925 22.9167 5.72925Z" fill="white"/>
<path d="M41.9999 47.4792C41.8333 47.4792 41.6666 47.4583 41.5208 47.4375C40.5416 47.3125 38.7708 46.6458 37.7708 43.6667C37.2499 42.1042 37.4374 40.5417 38.2916 39.3542C39.1458 38.1667 40.5833 37.5 42.2291 37.5C44.3541 37.5 46.0208 38.3125 46.7708 39.75C47.5208 41.1875 47.3124 43.0208 46.1249 44.7917C44.6458 47.0208 43.0416 47.4792 41.9999 47.4792ZM40.7499 42.6875C41.1041 43.7708 41.6041 44.3125 41.9374 44.3542C42.2708 44.3958 42.8958 44 43.5416 43.0625C44.1458 42.1667 44.1874 41.5208 44.0416 41.2292C43.8958 40.9375 43.3124 40.625 42.2291 40.625C41.5833 40.625 41.1041 40.8333 40.8333 41.1875C40.5833 41.5417 40.5416 42.0833 40.7499 42.6875Z" fill="white"/>
</svg>
