<svg width="50" height="50" viewBox="0 0 50 50" fill="none" xmlns="http://www.w3.org/2000/svg">
<path d="M24.9998 47.3959C24.4998 47.3959 23.9998 47.3335 23.5206 47.1877C12.7081 44.2085 4.87476 34.1042 4.87476 23.1459V14C4.87476 11.6667 6.56227 9.14599 8.72894 8.25015L20.3331 3.50009C23.3539 2.27092 26.6664 2.27092 29.6664 3.50009L41.2706 8.25015C43.4373 9.14599 45.1248 11.6667 45.1248 14V23.1459C45.1248 34.0834 37.2706 44.1877 26.4789 47.1877C25.9997 47.3335 25.4998 47.3959 24.9998 47.3959ZM24.9998 5.72927C23.8123 5.72927 22.6456 5.95848 21.5206 6.41681L9.91645 11.1667C8.91645 11.5834 7.99976 12.9376 7.99976 14.0209V23.1668C7.99976 32.7293 14.8748 41.5626 24.3539 44.1876C24.7706 44.3126 25.2289 44.3126 25.6456 44.1876C35.1248 41.5626 41.9998 32.7293 41.9998 23.1668V14.0209C41.9998 12.9376 41.0831 11.5834 40.0831 11.1667L28.479 6.41681C27.354 5.95848 26.1873 5.72927 24.9998 5.72927Z" fill="white"/>
<path d="M24.9999 27.6042C21.8333 27.6042 19.2708 25.0417 19.2708 21.875C19.2708 18.7083 21.8333 16.1458 24.9999 16.1458C28.1666 16.1458 30.7291 18.7083 30.7291 21.875C30.7291 25.0417 28.1666 27.6042 24.9999 27.6042ZM24.9999 19.2708C23.5624 19.2708 22.3958 20.4375 22.3958 21.875C22.3958 23.3125 23.5624 24.4792 24.9999 24.4792C26.4374 24.4792 27.6041 23.3125 27.6041 21.875C27.6041 20.4375 26.4374 19.2708 24.9999 19.2708Z" fill="white"/>
<path d="M25 33.8542C24.1458 33.8542 23.4375 33.1458 23.4375 32.2917V26.0417C23.4375 25.1875 24.1458 24.4792 25 24.4792C25.8542 24.4792 26.5625 25.1875 26.5625 26.0417V32.2917C26.5625 33.1458 25.8542 33.8542 25 33.8542Z" fill="white"/>
</svg>
