<svg width="50" height="50" viewBox="0 0 50 50" fill="none" xmlns="http://www.w3.org/2000/svg">
<path d="M24.9997 47.4167C22.7289 47.4167 20.4789 46.75 18.708 45.4375L9.74967 38.75C7.37467 36.9792 5.52051 33.2917 5.52051 30.3334V14.8542C5.52051 11.6459 7.87471 8.2292 10.8955 7.1042L21.2914 3.20837C23.3539 2.43754 26.6039 2.43754 28.6664 3.20837L39.083 7.1042C42.1039 8.2292 44.458 11.6459 44.458 14.8542V30.3334C44.458 33.2917 42.6038 36.9792 40.2288 38.75L31.2705 45.4375C29.5205 46.75 27.2705 47.4167 24.9997 47.4167ZM22.3955 6.12503L11.9997 10.0209C10.208 10.6875 8.64551 12.9375 8.64551 14.8542V30.3334C8.64551 32.3125 10.0414 35.0833 11.6039 36.25L20.5622 42.9375C22.958 44.7292 27.0205 44.7292 29.4163 42.9375L38.3747 36.25C39.958 35.0625 41.333 32.2917 41.333 30.3334V14.8542C41.333 12.9584 39.7705 10.7084 37.9789 10.0209L27.583 6.12503C26.208 5.60419 23.7914 5.60419 22.3955 6.12503Z" fill="white"/>
<path d="M24.9997 24.3126C24.9581 24.3126 24.9164 24.3126 24.8539 24.3126C21.833 24.2292 19.6248 21.9167 19.6248 19.1042C19.6248 16.2292 21.9789 13.8751 24.8539 13.8751C27.7289 13.8751 30.0831 16.2292 30.0831 19.1042C30.0622 21.9376 27.8539 24.2292 25.0414 24.3334C25.0205 24.3125 25.0206 24.3126 24.9997 24.3126ZM24.8539 17.0001C23.6872 17.0001 22.7498 17.9376 22.7498 19.1042C22.7498 20.2501 23.6456 21.1667 24.7706 21.2084C24.7706 21.2084 24.8747 21.2084 24.9997 21.2084C26.1039 21.1459 26.9581 20.2292 26.9581 19.1042C26.9789 17.9376 26.0205 17.0001 24.8539 17.0001Z" fill="white"/>
<path d="M24.9995 36.1459C23.2079 36.1459 21.3954 35.6667 19.9996 34.7292C18.6037 33.8126 17.812 32.4584 17.812 31.0209C17.812 29.5834 18.6037 28.2292 19.9996 27.2917C22.8121 25.4167 27.2079 25.4376 29.9995 27.2917C31.3954 28.2084 32.1871 29.5626 32.1871 31.0001C32.1871 32.4376 31.3954 33.7917 29.9995 34.7292C28.6037 35.6667 26.7912 36.1459 24.9995 36.1459ZM21.7287 29.875C21.2079 30.2084 20.9162 30.6251 20.937 31.0001C20.937 31.3751 21.2287 31.7917 21.7287 32.1251C23.4787 33.2917 26.5204 33.2917 28.2704 32.1251C28.7912 31.7917 29.0829 31.3751 29.0829 31.0001C29.0829 30.6251 28.7912 30.2084 28.2912 29.875C26.5412 28.7292 23.4787 28.7292 21.7287 29.875Z" fill="white"/>
</svg>
