<svg width="50" height="50" viewBox="0 0 50 50" fill="none" xmlns="http://www.w3.org/2000/svg">
<path d="M19.7505 43.1042C18.7088 43.1042 17.9796 42.75 17.5421 42.4167C16.7088 41.8125 15.4171 40.25 16.2296 36.75L17.4171 31.625C17.5212 31.1875 17.2921 30.3958 16.9796 30.0625L12.8338 25.9167C10.6463 23.7292 10.8338 21.8333 11.1254 20.8958C11.4171 19.9583 12.3754 18.3125 15.4171 17.7916L20.7296 16.9166C21.1255 16.8541 21.7713 16.375 21.9379 16.0208L24.8754 10.1458C26.2921 7.31247 28.1671 6.89581 29.1671 6.89581C30.1671 6.89581 32.0421 7.31247 33.4588 10.1458L36.3963 16.0208C36.5838 16.375 37.2087 16.8541 37.6046 16.9166L42.9171 17.7916C45.9588 18.2916 46.9171 19.9583 47.2088 20.8958C47.5004 21.8333 47.6879 23.7292 45.5004 25.9167L41.3546 30.0625C41.0421 30.375 40.813 31.1875 40.9171 31.625L42.1046 36.75C42.9171 40.2708 41.6254 41.8125 40.7921 42.4167C39.9587 43.0208 38.1046 43.7917 34.9796 41.9375L30.0004 38.9792C29.5837 38.7292 28.7087 38.7292 28.2921 38.9792L23.3129 41.9375C21.8754 42.8125 20.6671 43.1042 19.7505 43.1042ZM29.1671 10.0208C28.8338 10.0208 28.2296 10.4166 27.6671 11.5416L24.7296 17.4167C24.1046 18.6875 22.6254 19.7708 21.2296 20L15.9171 20.875C14.7296 21.0833 14.1879 21.5208 14.0838 21.8542C13.9796 22.1875 14.1671 22.8542 15.0212 23.7083L19.1671 27.8541C20.2296 28.9166 20.7921 30.8541 20.4588 32.3125L19.2713 37.4375C18.9171 38.9167 19.1462 39.7083 19.3754 39.8958C19.6046 40.0625 20.4379 40.0416 21.7296 39.25L26.7296 36.2916C28.1254 35.4583 30.2296 35.4583 31.6046 36.2916L36.5838 39.25C37.8963 40.0208 38.7296 40.0625 38.9588 39.8958C39.188 39.7291 39.4171 38.9375 39.0629 37.4375L37.8754 32.3125C37.5421 30.8333 38.0837 28.9166 39.1671 27.8541L43.3129 23.7083C44.1671 22.8542 44.3546 22.1667 44.2504 21.8542C44.1462 21.5417 43.6046 21.0833 42.4171 20.875L37.1046 20C35.7088 19.7708 34.2296 18.6875 33.6046 17.4167L30.6671 11.5416C30.1046 10.4166 29.5004 10.0208 29.1671 10.0208Z" fill="white"/>
<path d="M16.6666 11.9792H4.16663C3.31246 11.9792 2.60413 11.2708 2.60413 10.4167C2.60413 9.56249 3.31246 8.85416 4.16663 8.85416H16.6666C17.5208 8.85416 18.2291 9.56249 18.2291 10.4167C18.2291 11.2708 17.5208 11.9792 16.6666 11.9792Z" fill="white"/>
<path d="M10.4166 41.1458H4.16663C3.31246 41.1458 2.60413 40.4375 2.60413 39.5833C2.60413 38.7292 3.31246 38.0208 4.16663 38.0208H10.4166C11.2708 38.0208 11.9791 38.7292 11.9791 39.5833C11.9791 40.4375 11.2708 41.1458 10.4166 41.1458Z" fill="white"/>
<path d="M6.24996 26.5625H4.16663C3.31246 26.5625 2.60413 25.8542 2.60413 25C2.60413 24.1458 3.31246 23.4375 4.16663 23.4375H6.24996C7.10413 23.4375 7.81246 24.1458 7.81246 25C7.81246 25.8542 7.10413 26.5625 6.24996 26.5625Z" fill="white"/>
</svg>
