<svg width="20" height="20" viewBox="0 0 20 20" fill="none" xmlns="http://www.w3.org/2000/svg">
<path d="M10.0001 19.0084C9.42508 19.0084 8.88341 18.7167 8.50008 18.2084L7.25008 16.5417C7.22508 16.5084 7.12508 16.4584 7.07508 16.4584H6.66675C3.19175 16.4584 1.04175 15.5167 1.04175 10.8334V6.66675C1.04175 2.98341 2.98341 1.04175 6.66675 1.04175H11.6667C12.0084 1.04175 12.2917 1.32508 12.2917 1.66675C12.2917 2.00841 12.0084 2.29175 11.6667 2.29175H6.66675C3.68341 2.29175 2.29175 3.68341 2.29175 6.66675V10.8334C2.29175 14.6001 3.58341 15.2084 6.66675 15.2084H7.08342C7.50842 15.2084 7.99175 15.4501 8.25008 15.7917L9.50008 17.4584C9.79175 17.8417 10.2084 17.8417 10.5001 17.4584L11.7501 15.7917C12.0251 15.4251 12.4584 15.2084 12.9167 15.2084H13.3334C16.3167 15.2084 17.7084 13.8167 17.7084 10.8334V8.33342C17.7084 7.99175 17.9917 7.70842 18.3334 7.70842C18.6751 7.70842 18.9584 7.99175 18.9584 8.33342V10.8334C18.9584 14.5167 17.0167 16.4584 13.3334 16.4584H12.9167C12.8501 16.4584 12.7917 16.4917 12.7501 16.5417L11.5001 18.2084C11.1167 18.7167 10.5751 19.0084 10.0001 19.0084Z" fill="#24ABFF"/>
<path d="M10.0001 9.99992C9.53341 9.99992 9.16675 9.62492 9.16675 9.16659C9.16675 8.70825 9.54175 8.33325 10.0001 8.33325C10.4584 8.33325 10.8334 8.70825 10.8334 9.16659C10.8334 9.62492 10.4667 9.99992 10.0001 9.99992Z" fill="#24ABFF"/>
<path d="M13.3333 9.99992C12.8667 9.99992 12.5 9.62492 12.5 9.16659C12.5 8.70825 12.875 8.33325 13.3333 8.33325C13.7917 8.33325 14.1667 8.70825 14.1667 9.16659C14.1667 9.62492 13.8 9.99992 13.3333 9.99992Z" fill="#24ABFF"/>
<path d="M6.66659 9.99992C6.19992 9.99992 5.83325 9.62492 5.83325 9.16659C5.83325 8.70825 6.20825 8.33325 6.66659 8.33325C7.12492 8.33325 7.49992 8.70825 7.49992 9.16659C7.49992 9.62492 7.13325 9.99992 6.66659 9.99992Z" fill="#24ABFF"/>
<path d="M16.2501 6.45841C14.7584 6.45841 13.5417 5.24175 13.5417 3.75008C13.5417 2.25841 14.7584 1.04175 16.2501 1.04175C17.7417 1.04175 18.9584 2.25841 18.9584 3.75008C18.9584 5.24175 17.7417 6.45841 16.2501 6.45841ZM16.2501 2.29175C15.4501 2.29175 14.7917 2.95008 14.7917 3.75008C14.7917 4.55008 15.4501 5.20841 16.2501 5.20841C17.0501 5.20841 17.7084 4.55008 17.7084 3.75008C17.7084 2.95008 17.0501 2.29175 16.2501 2.29175Z" fill="#24ABFF"/>
</svg>
