<svg width="20" height="20" viewBox="0 0 20 20" fill="none" xmlns="http://www.w3.org/2000/svg">
<path d="M12.2916 9.79175H7.70825C7.36659 9.79175 7.08325 9.50841 7.08325 9.16675C7.08325 8.82508 7.36659 8.54175 7.70825 8.54175H12.2916C12.6333 8.54175 12.9166 8.82508 12.9166 9.16675C12.9166 9.50841 12.6333 9.79175 12.2916 9.79175Z" fill="#24ABFF"/>
<path d="M10 12.0833C9.65833 12.0833 9.375 11.8 9.375 11.4583V6.875C9.375 6.53333 9.65833 6.25 10 6.25C10.3417 6.25 10.625 6.53333 10.625 6.875V11.4583C10.625 11.8 10.3417 12.0833 10 12.0833Z" fill="#24ABFF"/>
<path d="M9.9999 18.9667C8.76657 18.9667 7.5249 18.5001 6.55824 17.5751C4.0999 15.2084 1.38324 11.4334 2.40824 6.94175C3.33324 2.86675 6.89157 1.04175 9.9999 1.04175C9.9999 1.04175 9.9999 1.04175 10.0082 1.04175C13.1166 1.04175 16.6749 2.86675 17.5999 6.95008C18.6166 11.4417 15.8999 15.2084 13.4416 17.5751C12.4749 18.5001 11.2332 18.9667 9.9999 18.9667ZM9.9999 2.29175C7.5749 2.29175 4.45824 3.58341 3.63324 7.21675C2.73324 11.1417 5.1999 14.5251 7.43324 16.6667C8.8749 18.0584 11.1332 18.0584 12.5749 16.6667C14.7999 14.5251 17.2666 11.1417 16.3832 7.21675C15.5499 3.58341 12.4249 2.29175 9.9999 2.29175Z" fill="#24ABFF"/>
</svg>
