<svg width="260" height="274" viewBox="0 0 260 274" fill="none" xmlns="http://www.w3.org/2000/svg">
<path fill-rule="evenodd" clip-rule="evenodd" d="M109.871 39.3721V162.34L82.7764 138.268V145.947L115.664 175.138V39.3721H109.871ZM143.666 39.3721V175.138L176.554 145.947V138.268L149.401 162.34V39.3721H143.666Z" fill="white"/>
<path d="M126.793 185.035V39.3721H132.529V185.035L129.632 187.595L126.793 185.035Z" fill="#24ABFF"/>
<path fill-rule="evenodd" clip-rule="evenodd" d="M71.9795 48.9933C78.1725 52.2951 77.3734 64.4101 63.4558 64.4101C54.3078 64.4101 46.8661 56.956 46.8661 47.7927C46.8661 38.6293 54.3078 31.1752 63.4558 31.1752H195.815C205.021 31.1752 212.463 38.6293 212.463 47.7927C212.463 56.956 205.021 64.4101 195.815 64.4101C181.897 64.4101 181.156 52.2868 187.349 48.9933C195.249 44.7827 189.847 34.8856 181.672 38.9795C172.358 43.6987 173.382 57.0728 180.199 63.7848C183.212 66.6864 187.016 68.8459 191.278 69.7047L177.078 125.694H174.181C177.985 134.399 186.509 140.035 195.823 140.035C205.138 140.035 213.72 134.399 217.524 125.694H214.569L200.426 69.7047C210.54 67.6035 218.206 58.6069 218.206 47.801C218.206 35.4526 208.209 25.4387 195.823 25.4387H63.4641C51.1363 25.4387 41.1393 35.4526 41.1393 47.801C41.1393 58.6153 48.7474 67.6035 58.9192 69.7047L44.7768 125.694H41.8218C45.6259 134.399 54.1496 140.035 63.4641 140.035C72.7786 140.035 81.3606 134.399 85.1646 125.694H82.2096L68.0673 69.7047C72.3291 68.8542 76.1332 66.6864 79.1464 63.7848C85.9055 57.0728 86.9293 43.6987 77.6148 38.9795C69.4906 34.8856 64.0967 44.7827 71.9878 48.9933H71.9795ZM209.907 125.694H181.789L195.823 70.1549L209.907 125.694ZM49.4299 125.694H77.5482L63.4641 70.1549L49.4299 125.694Z" fill="white"/>
<path d="M180.765 11.4978H78.5137V17.2426H180.765V11.4978Z" fill="white"/>
<path d="M163.551 0H95.7772V5.74482H163.551V0Z" fill="white"/>
<path d="M0 234.976V208.69H7.67655V228.367H15.9835V234.976H0Z" fill="white"/>
<path d="M19.6825 234.976V208.69H36.2223V215.299H27.359V218.904H35.4806V225.025H27.359V228.367H36.5931V234.976H19.6825Z" fill="white"/>
<path d="M51.1982 235.464C44.3004 235.464 39.8873 230.207 39.8873 222.246V221.57C39.8873 213.647 45.1533 208.165 52.9782 208.165H53.4603C57.9105 208.165 61.8044 210.267 64.4374 214.21L58.578 218.04C57.243 215.675 55.5742 214.661 53.6458 214.661H53.1637C49.9002 214.661 47.8234 217.515 47.8234 221.495V222.284C47.8234 226.414 49.8631 229.005 53.312 229.005H53.8312C55.9821 229.005 57.8734 227.541 57.8734 226.639V226.301H53.5345V220.218H64.697V234.976H59.2826C58.9489 234.525 58.6151 233.211 58.578 232.159C57.7993 233.962 54.8325 235.464 51.8657 235.464H51.1982Z" fill="white"/>
<path d="M66.5556 234.976L74.8255 208.69H84.3192L92.515 234.976H84.3934L83.3179 230.845H75.7156L74.6772 234.976H66.5556ZM77.1248 224.95H81.9829L79.832 217.026H79.2757L77.1248 224.95Z" fill="white"/>
<path d="M94.8096 234.976V208.69H102.486V228.367H110.793V234.976H94.8096Z" fill="white"/>
<path d="M124.324 234.976V208.69H135.709C140.938 208.69 144.646 211.206 144.646 215.036V215.562C144.646 217.853 143.608 219.655 141.049 220.969C144.016 222.208 145.648 224.612 145.648 227.39V227.991C145.648 232.197 142.087 234.976 136.636 234.976H124.324ZM131.63 219.242H135.153C136.339 219.242 137.526 218.378 137.526 217.289V216.801C137.526 215.712 136.599 214.999 135.301 214.999H131.63V219.242ZM131.63 228.63H136.117C137.266 228.63 138.305 227.841 138.305 226.79V226.301C138.305 225.1 137.229 224.236 135.968 224.236H131.63V228.63Z" fill="white"/>
<path d="M149.294 234.976V208.69H160.382C166.242 208.69 169.839 211.92 169.839 217.177V217.552C169.839 220.819 168.207 223.635 165.834 224.837L171.433 234.976H162.756L158.639 226.339H156.97V234.976H149.294ZM156.674 220.894H158.788C160.938 220.894 162.348 219.542 162.348 217.853V217.552C162.348 215.938 160.976 214.924 158.862 214.924H156.674V220.894Z" fill="white"/>
<path d="M174.59 234.976V208.69H182.266V234.976H174.59Z" fill="white"/>
<path d="M187.21 234.976V208.69H196.704C205.011 208.69 210.351 213.76 210.351 221.457V222.208C210.351 229.794 205.011 234.976 196.704 234.976H187.21ZM194.887 228.367H196.852C200.375 228.367 202.452 225.888 202.452 222.171V221.42C202.452 217.665 200.412 215.299 196.852 215.299H194.887V228.367Z" fill="white"/>
<path d="M224.774 235.464C217.876 235.464 213.463 230.207 213.463 222.246V221.57C213.463 213.647 218.729 208.165 226.554 208.165H227.036C231.486 208.165 235.38 210.267 238.013 214.21L232.154 218.04C230.819 215.675 229.15 214.661 227.221 214.661H226.739C223.476 214.661 221.399 217.515 221.399 221.495V222.284C221.399 226.414 223.439 229.005 226.888 229.005H227.407C229.558 229.005 231.449 227.541 231.449 226.639V226.301H227.11V220.218H238.273V234.976H232.858C232.525 234.525 232.191 233.211 232.154 232.159C231.375 233.962 228.408 235.464 225.441 235.464H224.774Z" fill="white"/>
<path d="M243.089 234.976V208.69H259.629V215.299H250.766V218.904H258.887V225.025H250.766V228.367H260V234.976H243.089Z" fill="white"/>
<path d="M24.7567 273.089C17.1172 273.089 11.7029 267.532 11.7029 259.759V259.046C11.7029 251.385 17.1172 245.715 24.6455 245.715H24.7938C29.2811 245.715 33.0637 247.668 35.4742 251.31L30.0969 255.628C28.8731 253.601 27.2043 252.362 25.1276 252.362H24.7938C21.827 252.362 19.639 254.99 19.639 259.046V259.759C19.639 263.852 21.7528 266.405 24.7567 266.405H25.2759C27.3156 266.405 28.9844 265.241 30.2082 263.214L35.5484 267.532C33.175 271.174 29.4665 273.089 24.905 273.089H24.7567Z" fill="#24ABFF"/>
<path d="M37.035 259.759V259.008C37.035 251.01 42.1156 245.602 49.9034 245.602H50.4597C58.1362 245.602 63.3281 251.085 63.3281 259.008V259.759C63.3281 267.682 58.1362 273.165 50.4597 273.165H49.9034C42.2639 273.165 37.035 267.57 37.035 259.759ZM44.9711 259.759C44.9711 264.04 46.8995 266.593 49.9405 266.593H50.4226C53.5006 266.593 55.3919 264.04 55.3919 259.759V259.008C55.3919 254.765 53.5006 252.211 50.4226 252.211H49.9405C46.8995 252.211 44.9711 254.765 44.9711 259.008V259.759Z" fill="#24ABFF"/>
<path d="M67.3495 272.526V246.241H75.8419L83.1847 261.073H83.3701V246.241H90.7129V272.526H83.2959L74.8777 255.628H74.6922V272.526H67.3495Z" fill="#24ABFF"/>
<path d="M104.701 273.014C100.807 273.014 96.913 271.738 93.9091 269.56L97.803 263.289C99.991 265.166 103.106 266.03 105.22 266.03C106.815 266.03 107.482 265.542 107.482 264.753C107.482 263.251 105.591 263.477 100.139 261.299C97.2467 260.135 94.725 258.219 94.725 253.676C94.725 249.057 98.8043 245.678 103.737 245.678C107.779 245.678 110.709 246.804 114.194 248.982L110.338 255.14C108.224 253.413 105.665 252.587 103.885 252.587C102.587 252.587 102.068 253.15 102.068 253.976C102.068 255.553 104.664 255.628 108.261 256.793C111.636 257.881 115.085 259.721 115.085 264.453C115.085 269.597 111.116 273.014 104.701 273.014Z" fill="#24ABFF"/>
<path d="M129.462 273.165C122.416 273.165 118.263 269.259 118.263 262.763V246.241H125.939V262.538C125.939 264.828 127.608 266.255 129.499 266.255C131.317 266.255 132.911 264.828 132.911 262.538V246.241H140.588V262.763C140.588 269.597 136.101 273.165 129.462 273.165Z" fill="#24ABFF"/>
<path d="M145.301 272.526V246.241H152.978V265.917H161.285V272.526H145.301Z" fill="#24ABFF"/>
<path d="M166.074 272.526V252.85H159.955V246.241H179.869V252.85H173.75V272.526H166.074Z" fill="#24ABFF"/>
<path d="M183.435 272.526V246.241H191.112V272.526H183.435Z" fill="#24ABFF"/>
<path d="M196.055 272.526V246.241H204.548L211.891 261.073H212.076V246.241H219.419V272.526H212.002L203.584 255.628H203.398V272.526H196.055Z" fill="#24ABFF"/>
<path d="M234.742 273.014C227.844 273.014 223.431 267.757 223.431 259.797V259.121C223.431 251.197 228.697 245.715 236.522 245.715H237.004C241.454 245.715 245.348 247.818 247.981 251.761L242.122 255.591C240.787 253.225 239.118 252.211 237.189 252.211H236.707C233.444 252.211 231.367 255.065 231.367 259.046V259.834C231.367 263.965 233.407 266.556 236.856 266.556H237.375C239.526 266.556 241.417 265.091 241.417 264.19V263.852H237.078V257.769H248.241V272.526H242.826C242.492 272.076 242.159 270.761 242.122 269.71C241.343 271.512 238.376 273.014 235.409 273.014H234.742Z" fill="#24ABFF"/>
</svg>
