<svg width="152" height="161" viewBox="0 0 152 161" fill="none" xmlns="http://www.w3.org/2000/svg">
<path fill-rule="evenodd" clip-rule="evenodd" d="M58.9877 33.7903V139.325L35.7344 118.666V125.257L63.9599 150.309V33.7903H58.9877ZM87.9919 33.7903V150.309L116.217 125.257V118.666L92.914 139.325V33.7903H87.9919Z" fill="white"/>
<path d="M73.5112 158.803V33.7903H78.4333V158.803L75.9472 161L73.5112 158.803Z" fill="#24ABFF"/>
<path fill-rule="evenodd" clip-rule="evenodd" d="M26.4681 42.0476C31.7831 44.8813 31.0973 55.2788 19.1527 55.2788C11.3016 55.2788 4.91498 48.8814 4.91498 41.0172C4.91498 33.1529 11.3016 26.7555 19.1527 26.7555H132.748C140.649 26.7555 147.035 33.1529 147.035 41.0172C147.035 48.8814 140.649 55.2788 132.748 55.2788C120.803 55.2788 120.167 44.8742 125.482 42.0476C132.262 38.4339 127.625 29.9399 120.61 33.4534C112.616 37.5036 113.495 48.9816 119.346 54.7421C121.932 57.2323 125.197 59.0857 128.854 59.8228L116.667 107.874H114.181C117.445 115.345 124.761 120.183 132.755 120.183C140.749 120.183 148.114 115.345 151.379 107.874H148.843L136.705 59.8228C145.385 58.0195 151.965 50.2983 151.965 41.0243C151.965 30.4265 143.385 21.8323 132.755 21.8323H19.1599C8.5798 21.8323 0 30.4265 0 41.0243C0 50.3055 6.52951 58.0195 15.2593 59.8228L3.12187 107.874H0.585793C3.85055 115.345 11.1659 120.183 19.1599 120.183C27.1539 120.183 34.5192 115.345 37.784 107.874H35.2479L23.1105 59.8228C26.7681 59.0929 30.0329 57.2323 32.619 54.7421C38.4198 48.9816 39.2985 37.5036 31.3045 33.4534C24.3321 29.9399 19.7028 38.4339 26.4752 42.0476H26.4681ZM144.842 107.874H120.71L132.755 60.2092L144.842 107.874ZM7.1153 107.874H31.2473L19.1599 60.2092L7.1153 107.874Z" fill="white"/>
<path d="M119.832 9.86792H32.0762V14.7983H119.832V9.86792Z" fill="white"/>
<path d="M105.057 0H46.8918V4.93039H105.057V0Z" fill="white"/>
</svg>
